<mxfile host="app.diagrams.net" modified="2021-09-27T06:47:24.876Z" agent="5.0 (Windows NT 10.0; WOW64) AppleWebKit/537.36 (KHTML, like Gecko) Chrome/94.0.4606.61 Safari/537.36" etag="iuYPraSC16yNpUkxNiL-" version="15.3.1" type="github" pages="2">
  <diagram id="fc1f3b67-3c9b-b1b3-7705-706421d27264" name="ERD Habit Tracker app">
    <mxGraphModel dx="1038" dy="547" grid="1" gridSize="10" guides="1" tooltips="1" connect="1" arrows="1" fold="1" page="1" pageScale="1" pageWidth="850" pageHeight="1100" math="0" shadow="0">
      <root>
        <mxCell id="0" />
        <mxCell id="1" parent="0" />
        <mxCell id="4cd4486c729dc68b-1" value="user_feeds" style="strokeWidth=2;whiteSpace=wrap;html=1;align=center;fontSize=13;fontFamily=Helvetica;fontColor=#000000;strokeColor=#d79b00;fillColor=#ffe6cc;" parent="1" vertex="1">
          <mxGeometry x="120" y="160" width="70" height="70" as="geometry" />
        </mxCell>
        <mxCell id="4a63a70a29bb4ada-1" value="Name" style="ellipse;whiteSpace=wrap;html=1;aspect=fixed;fontSize=10;fillColor=#dae8fc;strokeColor=#6c8ebf;" parent="1" vertex="1">
          <mxGeometry x="118" y="95" width="50" height="50" as="geometry" />
        </mxCell>
        <mxCell id="4a63a70a29bb4ada-2" value="&lt;u&gt;&amp;nbsp;UserID&amp;nbsp;&lt;/u&gt;" style="ellipse;whiteSpace=wrap;html=1;aspect=fixed;fontSize=10;fillColor=#dae8fc;strokeColor=#6c8ebf;" parent="1" vertex="1">
          <mxGeometry x="34" y="111" width="66" height="66" as="geometry" />
        </mxCell>
        <mxCell id="4a63a70a29bb4ada-3" value="&lt;i&gt;CoachID&lt;/i&gt;" style="ellipse;whiteSpace=wrap;html=1;aspect=fixed;fontSize=10;fillColor=#dae8fc;strokeColor=#6c8ebf;" parent="1" vertex="1">
          <mxGeometry x="43" y="199" width="50" height="50" as="geometry" />
        </mxCell>
        <mxCell id="4a63a70a29bb4ada-5" value="Habit" style="strokeWidth=2;whiteSpace=wrap;html=1;align=center;fontSize=13;fontFamily=Helvetica;fontColor=#000000;strokeColor=#d79b00;fillColor=#ffe6cc;" parent="1" vertex="1">
          <mxGeometry x="490" y="143" width="70" height="70" as="geometry" />
        </mxCell>
        <mxCell id="4a63a70a29bb4ada-6" value="Habit Name" style="ellipse;whiteSpace=wrap;html=1;aspect=fixed;fontSize=10;fillColor=#dae8fc;strokeColor=#6c8ebf;" parent="1" vertex="1">
          <mxGeometry x="510" y="69" width="50" height="50" as="geometry" />
        </mxCell>
        <mxCell id="5ecfb9fce94ea102-6" value="" style="edgeStyle=none;rounded=0;html=1;startArrow=none;startFill=0;endArrow=none;endFill=0;jettySize=auto;orthogonalLoop=1;strokeColor=#000066;fontSize=13;" parent="1" source="4a63a70a29bb4ada-6" target="4a63a70a29bb4ada-5" edge="1">
          <mxGeometry relative="1" as="geometry" />
        </mxCell>
        <mxCell id="4a63a70a29bb4ada-8" value="&lt;u&gt;&amp;nbsp;HabitID&amp;nbsp;&lt;/u&gt;" style="ellipse;whiteSpace=wrap;html=1;aspect=fixed;fontSize=10;fillColor=#dae8fc;strokeColor=#6c8ebf;" parent="1" vertex="1">
          <mxGeometry x="579" y="87" width="66" height="66" as="geometry" />
        </mxCell>
        <mxCell id="4a63a70a29bb4ada-9" value="" style="edgeStyle=orthogonalEdgeStyle;html=1;endArrow=ERzeroToMany;endFill=1;fontSize=13;exitX=1;exitY=0.5;entryX=0;entryY=0.5;rounded=0;" parent="1" source="61c8091a879e1e43-1" target="4a63a70a29bb4ada-5" edge="1">
          <mxGeometry width="100" height="100" relative="1" as="geometry">
            <mxPoint x="285" y="370" as="sourcePoint" />
            <mxPoint x="385" y="270" as="targetPoint" />
          </mxGeometry>
        </mxCell>
        <mxCell id="4a63a70a29bb4ada-10" value="" style="edgeStyle=orthogonalEdgeStyle;html=1;endArrow=none;endFill=0;fontSize=13;exitX=1;exitY=0.25;entryX=0;entryY=0.5;rounded=0;startArrow=ERmany;startFill=0;" parent="1" source="4cd4486c729dc68b-1" target="61c8091a879e1e43-1" edge="1">
          <mxGeometry width="100" height="100" relative="1" as="geometry">
            <mxPoint x="190" y="195" as="sourcePoint" />
            <mxPoint x="365" y="195" as="targetPoint" />
          </mxGeometry>
        </mxCell>
        <mxCell id="4a63a70a29bb4ada-13" value="Checkin" style="strokeWidth=2;whiteSpace=wrap;html=1;align=center;fontSize=13;fontFamily=Helvetica;fontColor=#000000;strokeColor=#d79b00;fillColor=#ffe6cc;" parent="1" vertex="1">
          <mxGeometry x="490" y="279" width="70" height="70" as="geometry" />
        </mxCell>
        <mxCell id="4a63a70a29bb4ada-16" value="Comment" style="strokeWidth=2;whiteSpace=wrap;html=1;align=center;fontSize=13;fontFamily=Helvetica;fontColor=#000000;strokeColor=#d79b00;fillColor=#ffe6cc;" parent="1" vertex="1">
          <mxGeometry x="490" y="482" width="70" height="70" as="geometry" />
        </mxCell>
        <mxCell id="4a63a70a29bb4ada-18" value="Writes" style="shape=rhombus;strokeWidth=2;fontSize=13;perimeter=rhombusPerimeter;whiteSpace=wrap;html=1;align=center;fillColor=#d5e8d4;strokeColor=#82b366;" parent="1" vertex="1">
          <mxGeometry x="313" y="422" width="70" height="70" as="geometry" />
        </mxCell>
        <mxCell id="4a63a70a29bb4ada-19" value="Coach" style="strokeWidth=2;whiteSpace=wrap;html=1;align=center;fontSize=13;fontFamily=Helvetica;fontColor=#000000;strokeColor=#d79b00;fillColor=#ffe6cc;" parent="1" vertex="1">
          <mxGeometry x="120" y="370" width="70" height="70" as="geometry" />
        </mxCell>
        <mxCell id="4a63a70a29bb4ada-20" value="&lt;u&gt;&amp;nbsp;CoachID&amp;nbsp;&lt;/u&gt;" style="ellipse;whiteSpace=wrap;html=1;aspect=fixed;fontSize=10;fillColor=#dae8fc;strokeColor=#6c8ebf;" parent="1" vertex="1">
          <mxGeometry x="34" y="384" width="66" height="66" as="geometry" />
        </mxCell>
        <mxCell id="4a63a70a29bb4ada-21" value="Name" style="ellipse;whiteSpace=wrap;html=1;aspect=fixed;fontSize=10;fillColor=#dae8fc;strokeColor=#6c8ebf;" parent="1" vertex="1">
          <mxGeometry x="93" y="457" width="50" height="50" as="geometry" />
        </mxCell>
        <mxCell id="4a63a70a29bb4ada-22" value="Has" style="shape=rhombus;strokeWidth=2;fontSize=13;perimeter=rhombusPerimeter;whiteSpace=wrap;html=1;align=center;fillColor=#d5e8d4;strokeColor=#82b366;" parent="1" vertex="1">
          <mxGeometry x="120" y="265" width="70" height="70" as="geometry" />
        </mxCell>
        <mxCell id="4a63a70a29bb4ada-23" value="Does" style="shape=rhombus;strokeWidth=2;fontSize=13;perimeter=rhombusPerimeter;whiteSpace=wrap;html=1;align=center;fillColor=#d5e8d4;strokeColor=#82b366;" parent="1" vertex="1">
          <mxGeometry x="315" y="279" width="70" height="70" as="geometry" />
        </mxCell>
        <mxCell id="4a63a70a29bb4ada-24" style="edgeStyle=orthogonalEdgeStyle;rounded=0;html=1;exitX=1;exitY=0.75;entryX=0;entryY=0.5;endArrow=none;endFill=0;jettySize=auto;orthogonalLoop=1;fontSize=12;startArrow=ERmandOne;startFill=0;" parent="1" source="4cd4486c729dc68b-1" target="4a63a70a29bb4ada-23" edge="1">
          <mxGeometry relative="1" as="geometry">
            <Array as="points">
              <mxPoint x="285" y="213" />
              <mxPoint x="285" y="314" />
            </Array>
          </mxGeometry>
        </mxCell>
        <mxCell id="4a63a70a29bb4ada-29" style="edgeStyle=orthogonalEdgeStyle;rounded=0;html=1;exitX=0.5;exitY=1;entryX=0;entryY=0.5;endArrow=none;endFill=0;jettySize=auto;orthogonalLoop=1;fontSize=12;" parent="1" source="4a63a70a29bb4ada-13" target="4a63a70a29bb4ada-31" edge="1">
          <mxGeometry relative="1" as="geometry">
            <mxPoint x="519" y="430" as="targetPoint" />
          </mxGeometry>
        </mxCell>
        <mxCell id="4a63a70a29bb4ada-30" style="edgeStyle=orthogonalEdgeStyle;rounded=0;html=1;exitX=1;exitY=0.5;entryX=0.5;entryY=0;endArrow=ERzeroToMany;endFill=1;jettySize=auto;orthogonalLoop=1;fontSize=12;" parent="1" source="4a63a70a29bb4ada-31" target="4a63a70a29bb4ada-16" edge="1">
          <mxGeometry relative="1" as="geometry">
            <mxPoint x="519" y="550" as="sourcePoint" />
          </mxGeometry>
        </mxCell>
        <mxCell id="4a63a70a29bb4ada-31" value="Has" style="shape=rhombus;strokeWidth=2;fontSize=13;perimeter=rhombusPerimeter;whiteSpace=wrap;html=1;align=center;direction=south;fillColor=#d5e8d4;strokeColor=#82b366;" parent="1" vertex="1">
          <mxGeometry x="490" y="373" width="70" height="70" as="geometry" />
        </mxCell>
        <mxCell id="4a63a70a29bb4ada-38" style="edgeStyle=orthogonalEdgeStyle;rounded=0;html=1;exitX=1;exitY=0.5;entryX=0;entryY=0.5;endArrow=ERzeroToMany;endFill=1;jettySize=auto;orthogonalLoop=1;fontSize=12;" parent="1" source="4a63a70a29bb4ada-23" target="4a63a70a29bb4ada-13" edge="1">
          <mxGeometry relative="1" as="geometry" />
        </mxCell>
        <mxCell id="4a63a70a29bb4ada-39" style="edgeStyle=orthogonalEdgeStyle;rounded=0;html=1;exitX=0.5;exitY=0;entryX=0.5;entryY=1;endArrow=none;endFill=0;jettySize=auto;orthogonalLoop=1;fontSize=12;startArrow=ERzeroToOne;startFill=1;" parent="1" source="4a63a70a29bb4ada-19" target="4a63a70a29bb4ada-22" edge="1">
          <mxGeometry relative="1" as="geometry" />
        </mxCell>
        <mxCell id="4a63a70a29bb4ada-40" style="edgeStyle=orthogonalEdgeStyle;rounded=0;html=1;exitX=0.5;exitY=0;entryX=0.5;entryY=1;endArrow=ERzeroToMany;endFill=1;jettySize=auto;orthogonalLoop=1;fontSize=12;" parent="1" source="4a63a70a29bb4ada-22" target="4cd4486c729dc68b-1" edge="1">
          <mxGeometry relative="1" as="geometry" />
        </mxCell>
        <mxCell id="4a63a70a29bb4ada-41" style="edgeStyle=orthogonalEdgeStyle;rounded=0;html=1;exitX=0.75;exitY=1;endArrow=none;endFill=0;jettySize=auto;orthogonalLoop=1;fontSize=12;startArrow=ERmandOne;startFill=0;entryX=0;entryY=0.5;" parent="1" source="4cd4486c729dc68b-1" target="4a63a70a29bb4ada-18" edge="1">
          <mxGeometry relative="1" as="geometry">
            <Array as="points">
              <mxPoint x="173" y="260" />
              <mxPoint x="240" y="260" />
              <mxPoint x="240" y="457" />
            </Array>
            <mxPoint x="300" y="457" as="targetPoint" />
          </mxGeometry>
        </mxCell>
        <mxCell id="4a63a70a29bb4ada-42" style="edgeStyle=orthogonalEdgeStyle;rounded=0;html=1;entryX=0;entryY=0.5;endArrow=none;endFill=0;jettySize=auto;orthogonalLoop=1;fontSize=12;startArrow=ERmandOne;startFill=0;" parent="1" source="4a63a70a29bb4ada-19" target="4a63a70a29bb4ada-18" edge="1">
          <mxGeometry relative="1" as="geometry">
            <Array as="points">
              <mxPoint x="240" y="410" />
              <mxPoint x="240" y="457" />
            </Array>
          </mxGeometry>
        </mxCell>
        <mxCell id="4a63a70a29bb4ada-43" style="edgeStyle=orthogonalEdgeStyle;rounded=0;html=1;exitX=1;exitY=0.5;entryX=0;entryY=0.5;endArrow=ERzeroToMany;endFill=1;jettySize=auto;orthogonalLoop=1;fontSize=12;" parent="1" source="4a63a70a29bb4ada-18" target="4a63a70a29bb4ada-16" edge="1">
          <mxGeometry relative="1" as="geometry">
            <Array as="points">
              <mxPoint x="440" y="457" />
              <mxPoint x="440" y="517" />
            </Array>
          </mxGeometry>
        </mxCell>
        <mxCell id="4a63a70a29bb4ada-44" value="&lt;u&gt;&amp;nbsp;Habit&amp;nbsp;&lt;br&gt;&amp;nbsp;CheckinID&amp;nbsp;&lt;/u&gt;" style="ellipse;whiteSpace=wrap;html=1;aspect=fixed;fontSize=10;fillColor=#dae8fc;strokeColor=#6c8ebf;" parent="1" vertex="1">
          <mxGeometry x="616" y="250" width="66" height="66" as="geometry" />
        </mxCell>
        <mxCell id="4a63a70a29bb4ada-45" value="Checkin&lt;br&gt;Date&lt;br&gt;" style="ellipse;whiteSpace=wrap;html=1;aspect=fixed;fontSize=10;fillColor=#dae8fc;strokeColor=#6c8ebf;" parent="1" vertex="1">
          <mxGeometry x="560" y="225" width="49" height="49" as="geometry" />
        </mxCell>
        <mxCell id="4a63a70a29bb4ada-46" style="rounded=0;html=1;endArrow=none;endFill=0;jettySize=auto;orthogonalLoop=1;fontSize=12;" parent="1" source="4a63a70a29bb4ada-13" target="4a63a70a29bb4ada-45" edge="1">
          <mxGeometry relative="1" as="geometry" />
        </mxCell>
        <mxCell id="4a63a70a29bb4ada-48" style="rounded=0;html=1;endArrow=none;endFill=0;jettySize=auto;orthogonalLoop=1;fontSize=12;" parent="1" source="4a63a70a29bb4ada-8" target="4a63a70a29bb4ada-5" edge="1">
          <mxGeometry relative="1" as="geometry" />
        </mxCell>
        <mxCell id="4a63a70a29bb4ada-49" style="rounded=0;html=1;endArrow=none;endFill=0;jettySize=auto;orthogonalLoop=1;fontSize=12;" parent="1" target="4a63a70a29bb4ada-5" edge="1">
          <mxGeometry relative="1" as="geometry">
            <mxPoint x="532.4621577996652" y="118.87085356328134" as="sourcePoint" />
          </mxGeometry>
        </mxCell>
        <mxCell id="4a63a70a29bb4ada-51" style="edgeStyle=none;rounded=0;html=1;endArrow=none;endFill=0;jettySize=auto;orthogonalLoop=1;fontSize=12;" parent="1" source="4a63a70a29bb4ada-13" target="4a63a70a29bb4ada-44" edge="1">
          <mxGeometry relative="1" as="geometry" />
        </mxCell>
        <mxCell id="4a63a70a29bb4ada-52" style="edgeStyle=none;rounded=0;html=1;endArrow=none;endFill=0;jettySize=auto;orthogonalLoop=1;fontSize=12;" parent="1" source="4a63a70a29bb4ada-20" target="4a63a70a29bb4ada-19" edge="1">
          <mxGeometry relative="1" as="geometry" />
        </mxCell>
        <mxCell id="4a63a70a29bb4ada-53" style="edgeStyle=none;rounded=0;html=1;endArrow=none;endFill=0;jettySize=auto;orthogonalLoop=1;fontSize=12;" parent="1" source="4a63a70a29bb4ada-21" target="4a63a70a29bb4ada-19" edge="1">
          <mxGeometry relative="1" as="geometry" />
        </mxCell>
        <mxCell id="4a63a70a29bb4ada-54" style="edgeStyle=none;rounded=0;html=1;endArrow=none;endFill=0;jettySize=auto;orthogonalLoop=1;fontSize=12;" parent="1" source="4a63a70a29bb4ada-2" target="4cd4486c729dc68b-1" edge="1">
          <mxGeometry relative="1" as="geometry" />
        </mxCell>
        <mxCell id="4a63a70a29bb4ada-55" style="edgeStyle=none;rounded=0;html=1;endArrow=none;endFill=0;jettySize=auto;orthogonalLoop=1;fontSize=12;" parent="1" source="4a63a70a29bb4ada-1" target="4cd4486c729dc68b-1" edge="1">
          <mxGeometry relative="1" as="geometry" />
        </mxCell>
        <mxCell id="4a63a70a29bb4ada-56" style="edgeStyle=none;rounded=0;html=1;endArrow=none;endFill=0;jettySize=auto;orthogonalLoop=1;fontSize=12;" parent="1" source="4a63a70a29bb4ada-3" target="4cd4486c729dc68b-1" edge="1">
          <mxGeometry relative="1" as="geometry">
            <mxPoint x="110" y="260" as="sourcePoint" />
          </mxGeometry>
        </mxCell>
        <mxCell id="4a63a70a29bb4ada-58" value="&lt;u&gt;&amp;nbsp;CommentID&amp;nbsp;&lt;/u&gt;&lt;br&gt;" style="ellipse;whiteSpace=wrap;html=1;aspect=fixed;fontSize=10;fillColor=#dae8fc;strokeColor=#6c8ebf;" parent="1" vertex="1">
          <mxGeometry x="575" y="440" width="66" height="66" as="geometry" />
        </mxCell>
        <mxCell id="4a63a70a29bb4ada-59" value="Comment&lt;br&gt;Text&lt;br&gt;" style="ellipse;whiteSpace=wrap;html=1;aspect=fixed;fontSize=10;fillColor=#dae8fc;strokeColor=#6c8ebf;" parent="1" vertex="1">
          <mxGeometry x="608" y="513" width="49" height="49" as="geometry" />
        </mxCell>
        <mxCell id="4a63a70a29bb4ada-60" value="Comment&lt;br&gt;Date&lt;br&gt;" style="ellipse;whiteSpace=wrap;html=1;aspect=fixed;fontSize=10;fillColor=#dae8fc;strokeColor=#6c8ebf;" parent="1" vertex="1">
          <mxGeometry x="559" y="562" width="49" height="49" as="geometry" />
        </mxCell>
        <mxCell id="4a63a70a29bb4ada-61" value="&lt;i&gt;UserID&lt;/i&gt;&lt;br&gt;" style="ellipse;whiteSpace=wrap;html=1;aspect=fixed;fontSize=9;fillColor=#dae8fc;strokeColor=#6c8ebf;" parent="1" vertex="1">
          <mxGeometry x="501" y="570" width="49" height="49" as="geometry" />
        </mxCell>
        <mxCell id="4a63a70a29bb4ada-62" style="rounded=0;html=1;startArrow=none;startFill=0;endArrow=none;endFill=0;jettySize=auto;orthogonalLoop=1;fontSize=10;" parent="1" source="4a63a70a29bb4ada-58" target="4a63a70a29bb4ada-16" edge="1">
          <mxGeometry relative="1" as="geometry" />
        </mxCell>
        <mxCell id="4a63a70a29bb4ada-63" style="edgeStyle=none;rounded=0;html=1;startArrow=none;startFill=0;endArrow=none;endFill=0;jettySize=auto;orthogonalLoop=1;fontSize=10;" parent="1" source="4a63a70a29bb4ada-59" target="4a63a70a29bb4ada-16" edge="1">
          <mxGeometry relative="1" as="geometry" />
        </mxCell>
        <mxCell id="4a63a70a29bb4ada-64" style="edgeStyle=none;rounded=0;html=1;startArrow=none;startFill=0;endArrow=none;endFill=0;jettySize=auto;orthogonalLoop=1;fontSize=10;" parent="1" source="4a63a70a29bb4ada-60" target="4a63a70a29bb4ada-16" edge="1">
          <mxGeometry relative="1" as="geometry" />
        </mxCell>
        <mxCell id="4a63a70a29bb4ada-65" style="edgeStyle=none;rounded=0;html=1;startArrow=none;startFill=0;endArrow=none;endFill=0;jettySize=auto;orthogonalLoop=1;fontSize=10;" parent="1" source="4a63a70a29bb4ada-61" target="4a63a70a29bb4ada-16" edge="1">
          <mxGeometry relative="1" as="geometry" />
        </mxCell>
        <mxCell id="4a63a70a29bb4ada-7" value="HabitNum" style="ellipse;whiteSpace=wrap;html=1;aspect=fixed;fontSize=10;fillColor=#dae8fc;strokeColor=#6c8ebf;dashed=1;" parent="1" vertex="1">
          <mxGeometry x="190" y="94" width="50" height="50" as="geometry" />
        </mxCell>
        <mxCell id="4a63a70a29bb4ada-11" style="rounded=0;html=1;startArrow=none;startFill=0;endArrow=none;endFill=0;jettySize=auto;orthogonalLoop=1;fontSize=10;" parent="1" source="4a63a70a29bb4ada-7" target="4cd4486c729dc68b-1" edge="1">
          <mxGeometry relative="1" as="geometry" />
        </mxCell>
        <mxCell id="113bda5a66023eaa-1" value="&lt;i&gt;CoachID&lt;/i&gt;&lt;br&gt;" style="ellipse;whiteSpace=wrap;html=1;aspect=fixed;fontSize=9;fillColor=#dae8fc;strokeColor=#6c8ebf;" parent="1" vertex="1">
          <mxGeometry x="441" y="562" width="49" height="49" as="geometry" />
        </mxCell>
        <mxCell id="113bda5a66023eaa-2" style="rounded=0;html=1;startArrow=none;startFill=0;endArrow=none;endFill=0;jettySize=auto;orthogonalLoop=1;strokeColor=#000066;fontSize=13;" parent="1" source="113bda5a66023eaa-1" target="4a63a70a29bb4ada-16" edge="1">
          <mxGeometry relative="1" as="geometry" />
        </mxCell>
        <mxCell id="5ecfb9fce94ea102-1" value="&lt;i&gt;HabitID&lt;/i&gt;&lt;br&gt;" style="ellipse;whiteSpace=wrap;html=1;aspect=fixed;fontSize=10;fillColor=#dae8fc;strokeColor=#6c8ebf;" parent="1" vertex="1">
          <mxGeometry x="616" y="321" width="49" height="49" as="geometry" />
        </mxCell>
        <mxCell id="5ecfb9fce94ea102-2" style="rounded=0;html=1;startArrow=none;startFill=0;endArrow=none;endFill=0;jettySize=auto;orthogonalLoop=1;strokeColor=#000066;fontSize=13;" parent="1" source="5ecfb9fce94ea102-1" target="4a63a70a29bb4ada-13" edge="1">
          <mxGeometry relative="1" as="geometry" />
        </mxCell>
        <mxCell id="5ecfb9fce94ea102-3" style="edgeStyle=none;rounded=0;html=1;exitX=0.5;exitY=1;entryX=0.5;entryY=0;startArrow=ERmandOne;startFill=0;endArrow=ERzeroToMany;endFill=1;jettySize=auto;orthogonalLoop=1;strokeColor=#000066;fontSize=13;" parent="1" source="4a63a70a29bb4ada-5" target="4a63a70a29bb4ada-13" edge="1">
          <mxGeometry relative="1" as="geometry" />
        </mxCell>
        <mxCell id="5ecfb9fce94ea102-7" value="&lt;i&gt;Habit&lt;br&gt;CheckinID&lt;/i&gt;&lt;br&gt;" style="ellipse;whiteSpace=wrap;html=1;aspect=fixed;fontSize=9;fillColor=#dae8fc;strokeColor=#6c8ebf;" parent="1" vertex="1">
          <mxGeometry x="401" y="521" width="49" height="49" as="geometry" />
        </mxCell>
        <mxCell id="5ecfb9fce94ea102-8" style="edgeStyle=none;rounded=0;html=1;startArrow=none;startFill=0;endArrow=none;endFill=0;jettySize=auto;orthogonalLoop=1;strokeColor=#000066;fontSize=13;" parent="1" source="5ecfb9fce94ea102-7" target="4a63a70a29bb4ada-16" edge="1">
          <mxGeometry relative="1" as="geometry" />
        </mxCell>
        <mxCell id="5ecfb9fce94ea102-9" value="&lt;i&gt;UserID&lt;/i&gt;&lt;br&gt;" style="ellipse;whiteSpace=wrap;html=1;aspect=fixed;fontSize=10;fillColor=#dae8fc;strokeColor=#6c8ebf;" parent="1" vertex="1">
          <mxGeometry x="567" y="359" width="49" height="49" as="geometry" />
        </mxCell>
        <mxCell id="5ecfb9fce94ea102-10" style="edgeStyle=none;rounded=0;html=1;startArrow=none;startFill=0;endArrow=none;endFill=0;jettySize=auto;orthogonalLoop=1;strokeColor=#000066;fontSize=13;" parent="1" source="5ecfb9fce94ea102-9" target="4a63a70a29bb4ada-13" edge="1">
          <mxGeometry relative="1" as="geometry" />
        </mxCell>
        <mxCell id="61c8091a879e1e43-3" value="" style="group" parent="1" vertex="1" connectable="0">
          <mxGeometry x="312" y="141" width="74" height="74" as="geometry" />
        </mxCell>
        <mxCell id="61c8091a879e1e43-1" value="Entity" style="strokeWidth=2;whiteSpace=wrap;html=1;align=center;fontSize=14;fillColor=#d5e8d4;strokeColor=#82b366;" parent="61c8091a879e1e43-3" vertex="1">
          <mxGeometry width="74" height="74" as="geometry" />
        </mxCell>
        <mxCell id="4a63a70a29bb4ada-4" value="Has" style="shape=rhombus;strokeWidth=2;fontSize=13;perimeter=rhombusPerimeter;whiteSpace=wrap;html=1;align=center;fillColor=#d5e8d4;strokeColor=#82b366;" parent="61c8091a879e1e43-3" vertex="1">
          <mxGeometry x="2" y="2" width="70" height="70" as="geometry" />
        </mxCell>
      </root>
    </mxGraphModel>
  </diagram>
  <diagram id="cdb5e136-1861-7ef1-5e76-c57f7e18aa8d" name="ERD Data Structure - Habit Tracker App">
    <mxGraphModel dx="1038" dy="547" grid="1" gridSize="10" guides="1" tooltips="1" connect="1" arrows="1" fold="1" page="1" pageScale="1" pageWidth="1100" pageHeight="850" math="0" shadow="0">
      <root>
        <mxCell id="0" />
        <mxCell id="1" parent="0" />
        <mxCell id="4a63a70a29bb4ada-1" value="user_feeds" style="swimlane;fontStyle=0;childLayout=stackLayout;horizontal=1;startSize=26;fillColor=#ffe6cc;horizontalStack=0;resizeParent=1;resizeParentMax=0;resizeLast=0;collapsible=1;marginBottom=0;swimlaneFillColor=#ffffff;align=center;strokeWidth=1;fontSize=13;strokeColor=#d79b00;" parent="1" vertex="1">
          <mxGeometry x="330" y="12" width="165" height="160" as="geometry" />
        </mxCell>
        <mxCell id="4a63a70a29bb4ada-2" value="UserID" style="shape=partialRectangle;top=0;left=0;right=0;bottom=1;align=left;verticalAlign=middle;fillColor=none;spacingLeft=34;spacingRight=4;overflow=hidden;rotatable=0;points=[[0,0.5],[1,0.5]];portConstraint=eastwest;dropTarget=0;fontStyle=5;" parent="4a63a70a29bb4ada-1" vertex="1">
          <mxGeometry y="26" width="165" height="30" as="geometry" />
        </mxCell>
        <mxCell id="4a63a70a29bb4ada-3" value="PK" style="shape=partialRectangle;top=0;left=0;bottom=0;fillColor=none;align=left;verticalAlign=middle;spacingLeft=4;spacingRight=4;overflow=hidden;rotatable=0;points=[];portConstraint=eastwest;part=1;fontStyle=1" parent="4a63a70a29bb4ada-2" vertex="1" connectable="0">
          <mxGeometry width="30" height="30" as="geometry" />
        </mxCell>
        <mxCell id="4a63a70a29bb4ada-6" value="user_id" style="shape=partialRectangle;top=0;left=0;right=0;bottom=0;align=left;verticalAlign=top;fillColor=none;spacingLeft=34;spacingRight=4;overflow=hidden;rotatable=0;points=[[0,0.5],[1,0.5]];portConstraint=eastwest;dropTarget=0;fontStyle=2" parent="4a63a70a29bb4ada-1" vertex="1">
          <mxGeometry y="56" width="165" height="26" as="geometry" />
        </mxCell>
        <mxCell id="4a63a70a29bb4ada-7" value="FK" style="shape=partialRectangle;top=0;left=0;bottom=0;fillColor=none;align=left;verticalAlign=top;spacingLeft=4;spacingRight=4;overflow=hidden;rotatable=0;points=[];portConstraint=eastwest;part=1;fontStyle=2" parent="4a63a70a29bb4ada-6" vertex="1" connectable="0">
          <mxGeometry width="30" height="26" as="geometry" />
        </mxCell>
        <mxCell id="5ecfb9fce94ea102-8" value="post_id" style="shape=partialRectangle;top=0;left=0;right=0;bottom=0;align=left;verticalAlign=top;fillColor=none;spacingLeft=34;spacingRight=4;overflow=hidden;rotatable=0;points=[[0,0.5],[1,0.5]];portConstraint=eastwest;dropTarget=0;" parent="4a63a70a29bb4ada-1" vertex="1">
          <mxGeometry y="82" width="165" height="26" as="geometry" />
        </mxCell>
        <mxCell id="5ecfb9fce94ea102-9" value="" style="shape=partialRectangle;top=0;left=0;bottom=0;fillColor=none;align=left;verticalAlign=top;spacingLeft=4;spacingRight=4;overflow=hidden;rotatable=0;points=[];portConstraint=eastwest;part=1;" parent="5ecfb9fce94ea102-8" vertex="1" connectable="0">
          <mxGeometry width="30" height="26" as="geometry" />
        </mxCell>
        <mxCell id="4a63a70a29bb4ada-16" value="created_at" style="shape=partialRectangle;top=0;left=0;right=0;bottom=0;align=left;verticalAlign=top;fillColor=none;spacingLeft=34;spacingRight=4;overflow=hidden;rotatable=0;points=[[0,0.5],[1,0.5]];portConstraint=eastwest;dropTarget=0;" parent="4a63a70a29bb4ada-1" vertex="1">
          <mxGeometry y="108" width="165" height="22" as="geometry" />
        </mxCell>
        <mxCell id="4a63a70a29bb4ada-17" value="" style="shape=partialRectangle;top=0;left=0;bottom=0;fillColor=none;align=left;verticalAlign=top;spacingLeft=4;spacingRight=4;overflow=hidden;rotatable=0;points=[];portConstraint=eastwest;part=1;" parent="4a63a70a29bb4ada-16" vertex="1" connectable="0">
          <mxGeometry width="30" height="22" as="geometry" />
        </mxCell>
        <mxCell id="4a63a70a29bb4ada-10" value="updated_at" style="shape=partialRectangle;top=0;left=0;right=0;bottom=0;align=left;verticalAlign=top;fillColor=none;spacingLeft=34;spacingRight=4;overflow=hidden;rotatable=0;points=[[0,0.5],[1,0.5]];portConstraint=eastwest;dropTarget=0;" parent="4a63a70a29bb4ada-1" vertex="1">
          <mxGeometry y="130" width="165" height="30" as="geometry" />
        </mxCell>
        <mxCell id="4a63a70a29bb4ada-11" value="" style="shape=partialRectangle;top=0;left=0;bottom=0;fillColor=none;align=left;verticalAlign=top;spacingLeft=4;spacingRight=4;overflow=hidden;rotatable=0;points=[];portConstraint=eastwest;part=1;" parent="4a63a70a29bb4ada-10" vertex="1" connectable="0">
          <mxGeometry width="30" height="30" as="geometry" />
        </mxCell>
        <mxCell id="mLGmc2GUnrr8j5SqYWJm-1" style="edgeStyle=orthogonalEdgeStyle;rounded=0;orthogonalLoop=1;jettySize=auto;html=1;entryX=0.5;entryY=1;entryDx=0;entryDy=0;entryPerimeter=0;" parent="4a63a70a29bb4ada-1" source="4a63a70a29bb4ada-1" target="4a63a70a29bb4ada-10" edge="1">
          <mxGeometry relative="1" as="geometry">
            <mxPoint x="80" y="189" as="targetPoint" />
          </mxGeometry>
        </mxCell>
        <mxCell id="mLGmc2GUnrr8j5SqYWJm-4" style="edgeStyle=orthogonalEdgeStyle;rounded=0;orthogonalLoop=1;jettySize=auto;html=1;exitX=0.5;exitY=0;exitDx=0;exitDy=0;" parent="1" source="4a63a70a29bb4ada-18" target="4a63a70a29bb4ada-6" edge="1">
          <mxGeometry relative="1" as="geometry" />
        </mxCell>
        <mxCell id="4a63a70a29bb4ada-18" value="user" style="swimlane;fontStyle=0;childLayout=stackLayout;horizontal=1;startSize=26;fillColor=#ffe6cc;horizontalStack=0;resizeParent=1;resizeParentMax=0;resizeLast=0;collapsible=1;marginBottom=0;swimlaneFillColor=#ffffff;align=center;strokeWidth=1;fontSize=13;strokeColor=#d79b00;" parent="1" vertex="1">
          <mxGeometry x="82" y="280" width="160" height="170" as="geometry">
            <mxRectangle x="82" y="280" width="60" height="26" as="alternateBounds" />
          </mxGeometry>
        </mxCell>
        <mxCell id="4a63a70a29bb4ada-19" value="id" style="shape=partialRectangle;top=0;left=0;right=0;bottom=1;align=left;verticalAlign=middle;fillColor=none;spacingLeft=34;spacingRight=4;overflow=hidden;rotatable=0;points=[[0,0.5],[1,0.5]];portConstraint=eastwest;dropTarget=0;fontStyle=5;" parent="4a63a70a29bb4ada-18" vertex="1">
          <mxGeometry y="26" width="160" height="30" as="geometry" />
        </mxCell>
        <mxCell id="4a63a70a29bb4ada-20" value="PK" style="shape=partialRectangle;top=0;left=0;bottom=0;fillColor=none;align=left;verticalAlign=middle;spacingLeft=4;spacingRight=4;overflow=hidden;rotatable=0;points=[];portConstraint=eastwest;part=1;" parent="4a63a70a29bb4ada-19" vertex="1" connectable="0">
          <mxGeometry width="30" height="30" as="geometry" />
        </mxCell>
        <mxCell id="4a63a70a29bb4ada-23" value="Name" style="shape=partialRectangle;top=0;left=0;right=0;bottom=0;align=left;verticalAlign=top;fillColor=none;spacingLeft=34;spacingRight=4;overflow=hidden;rotatable=0;points=[[0,0.5],[1,0.5]];portConstraint=eastwest;dropTarget=0;" parent="4a63a70a29bb4ada-18" vertex="1">
          <mxGeometry y="56" width="160" height="26" as="geometry" />
        </mxCell>
        <mxCell id="4a63a70a29bb4ada-24" value="" style="shape=partialRectangle;top=0;left=0;bottom=0;fillColor=none;align=left;verticalAlign=top;spacingLeft=4;spacingRight=4;overflow=hidden;rotatable=0;points=[];portConstraint=eastwest;part=1;" parent="4a63a70a29bb4ada-23" vertex="1" connectable="0">
          <mxGeometry width="30" height="26" as="geometry" />
        </mxCell>
        <mxCell id="4a63a70a29bb4ada-29" value="email&#xa;&#xa;created_at &#xa;&#xa;updated_at&#xa;" style="shape=partialRectangle;top=0;left=0;right=0;bottom=0;align=left;verticalAlign=top;fillColor=none;spacingLeft=34;spacingRight=4;overflow=hidden;rotatable=0;points=[[0,0.5],[1,0.5]];portConstraint=eastwest;dropTarget=0;" parent="4a63a70a29bb4ada-18" vertex="1">
          <mxGeometry y="82" width="160" height="88" as="geometry" />
        </mxCell>
        <mxCell id="4a63a70a29bb4ada-30" value="" style="shape=partialRectangle;top=0;left=0;bottom=0;fillColor=none;align=left;verticalAlign=top;spacingLeft=4;spacingRight=4;overflow=hidden;rotatable=0;points=[];portConstraint=eastwest;part=1;" parent="4a63a70a29bb4ada-29" vertex="1" connectable="0">
          <mxGeometry width="30" height="88" as="geometry" />
        </mxCell>
        <mxCell id="4a63a70a29bb4ada-48" value="" style="edgeStyle=none;rounded=0;html=1;startArrow=ERmandOne;startFill=0;endArrow=ERzeroToMany;endFill=1;jettySize=auto;orthogonalLoop=1;strokeColor=#000066;fontSize=10;" parent="1" source="4a63a70a29bb4ada-12" target="4a63a70a29bb4ada-26" edge="1">
          <mxGeometry relative="1" as="geometry" />
        </mxCell>
        <mxCell id="HoltSotuUJbAwv-jnQ-8-1" style="edgeStyle=orthogonalEdgeStyle;rounded=0;orthogonalLoop=1;jettySize=auto;html=1;exitX=0.5;exitY=0;exitDx=0;exitDy=0;" parent="1" source="4a63a70a29bb4ada-12" target="4a63a70a29bb4ada-1" edge="1">
          <mxGeometry relative="1" as="geometry">
            <mxPoint x="500" y="53" as="targetPoint" />
          </mxGeometry>
        </mxCell>
        <mxCell id="4a63a70a29bb4ada-12" value="posts" style="swimlane;fontStyle=0;childLayout=stackLayout;horizontal=1;startSize=26;fillColor=#ffe6cc;horizontalStack=0;resizeParent=1;resizeParentMax=0;resizeLast=0;collapsible=1;marginBottom=0;swimlaneFillColor=#ffffff;align=center;strokeWidth=1;fontSize=13;strokeColor=#d79b00;" parent="1" vertex="1">
          <mxGeometry x="655" y="67" width="160" height="134" as="geometry" />
        </mxCell>
        <mxCell id="4a63a70a29bb4ada-13" value="id" style="shape=partialRectangle;top=0;left=0;right=0;bottom=1;align=left;verticalAlign=middle;fillColor=none;spacingLeft=34;spacingRight=4;overflow=hidden;rotatable=0;points=[[0,0.5],[1,0.5]];portConstraint=eastwest;dropTarget=0;fontStyle=5;" parent="4a63a70a29bb4ada-12" vertex="1">
          <mxGeometry y="26" width="160" height="30" as="geometry" />
        </mxCell>
        <mxCell id="4a63a70a29bb4ada-14" value="PK" style="shape=partialRectangle;top=0;left=0;bottom=0;fillColor=none;align=left;verticalAlign=middle;spacingLeft=4;spacingRight=4;overflow=hidden;rotatable=0;points=[];portConstraint=eastwest;part=1;" parent="4a63a70a29bb4ada-13" vertex="1" connectable="0">
          <mxGeometry width="30" height="30" as="geometry" />
        </mxCell>
        <mxCell id="4a63a70a29bb4ada-15" value="comment" style="shape=partialRectangle;top=0;left=0;right=0;bottom=0;align=left;verticalAlign=bottom;fillColor=none;spacingLeft=34;spacingRight=4;overflow=hidden;rotatable=0;points=[[0,0.5],[1,0.5]];portConstraint=eastwest;dropTarget=0;fontStyle=2" parent="4a63a70a29bb4ada-12" vertex="1">
          <mxGeometry y="56" width="160" height="26" as="geometry" />
        </mxCell>
        <mxCell id="4a63a70a29bb4ada-25" value="FK" style="shape=partialRectangle;top=0;left=0;bottom=0;fillColor=none;align=left;verticalAlign=top;spacingLeft=4;spacingRight=4;overflow=hidden;rotatable=0;points=[];portConstraint=eastwest;part=1;fontStyle=2" parent="4a63a70a29bb4ada-15" vertex="1" connectable="0">
          <mxGeometry width="30" height="26" as="geometry" />
        </mxCell>
        <mxCell id="5ecfb9fce94ea102-5" value="updated_at" style="shape=partialRectangle;top=0;left=0;right=0;bottom=0;align=left;verticalAlign=bottom;fillColor=none;spacingLeft=34;spacingRight=4;overflow=hidden;rotatable=0;points=[[0,0.5],[1,0.5]];portConstraint=eastwest;dropTarget=0;fontStyle=2" parent="4a63a70a29bb4ada-12" vertex="1">
          <mxGeometry y="82" width="160" height="26" as="geometry" />
        </mxCell>
        <mxCell id="5ecfb9fce94ea102-6" value="FK" style="shape=partialRectangle;top=0;left=0;bottom=0;fillColor=none;align=left;verticalAlign=top;spacingLeft=4;spacingRight=4;overflow=hidden;rotatable=0;points=[];portConstraint=eastwest;part=1;fontStyle=2" parent="5ecfb9fce94ea102-5" vertex="1" connectable="0">
          <mxGeometry width="30" height="26" as="geometry" />
        </mxCell>
        <mxCell id="4f2698fda814bacb-1" value="created_at" style="shape=partialRectangle;top=0;left=0;right=0;bottom=0;align=left;verticalAlign=top;fillColor=none;spacingLeft=34;spacingRight=4;overflow=hidden;rotatable=0;points=[[0,0.5],[1,0.5]];portConstraint=eastwest;dropTarget=0;" parent="4a63a70a29bb4ada-12" vertex="1">
          <mxGeometry y="108" width="160" height="26" as="geometry" />
        </mxCell>
        <mxCell id="4f2698fda814bacb-2" value="" style="shape=partialRectangle;top=0;left=0;bottom=0;fillColor=none;align=left;verticalAlign=top;spacingLeft=4;spacingRight=4;overflow=hidden;rotatable=0;points=[];portConstraint=eastwest;part=1;" parent="4f2698fda814bacb-1" vertex="1" connectable="0">
          <mxGeometry width="30" height="26" as="geometry" />
        </mxCell>
        <mxCell id="4a63a70a29bb4ada-26" value="post_comments" style="swimlane;fontStyle=0;childLayout=stackLayout;horizontal=1;startSize=26;fillColor=#ffe6cc;horizontalStack=0;resizeParent=1;resizeParentMax=0;resizeLast=0;collapsible=1;marginBottom=0;swimlaneFillColor=#ffffff;align=center;strokeWidth=1;fontSize=13;strokeColor=#d79b00;" parent="1" vertex="1">
          <mxGeometry x="655" y="264" width="160" height="160" as="geometry" />
        </mxCell>
        <mxCell id="4a63a70a29bb4ada-27" value="CommentID" style="shape=partialRectangle;top=0;left=0;right=0;bottom=1;align=left;verticalAlign=middle;fillColor=none;spacingLeft=34;spacingRight=4;overflow=hidden;rotatable=0;points=[[0,0.5],[1,0.5]];portConstraint=eastwest;dropTarget=0;fontStyle=5;" parent="4a63a70a29bb4ada-26" vertex="1">
          <mxGeometry y="26" width="160" height="30" as="geometry" />
        </mxCell>
        <mxCell id="4a63a70a29bb4ada-28" value="PK" style="shape=partialRectangle;top=0;left=0;bottom=0;fillColor=none;align=left;verticalAlign=middle;spacingLeft=4;spacingRight=4;overflow=hidden;rotatable=0;points=[];portConstraint=eastwest;part=1;fontStyle=1" parent="4a63a70a29bb4ada-27" vertex="1" connectable="0">
          <mxGeometry width="30" height="30" as="geometry" />
        </mxCell>
        <mxCell id="4a63a70a29bb4ada-51" value="post_id" style="shape=partialRectangle;top=0;left=0;right=0;bottom=0;align=left;verticalAlign=top;fillColor=none;spacingLeft=34;spacingRight=4;overflow=hidden;rotatable=0;points=[[0,0.5],[1,0.5]];portConstraint=eastwest;dropTarget=0;fontStyle=2" parent="4a63a70a29bb4ada-26" vertex="1">
          <mxGeometry y="56" width="160" height="26" as="geometry" />
        </mxCell>
        <mxCell id="4a63a70a29bb4ada-52" value="FK" style="shape=partialRectangle;top=0;left=0;bottom=0;fillColor=none;align=left;verticalAlign=top;spacingLeft=4;spacingRight=4;overflow=hidden;rotatable=0;points=[];portConstraint=eastwest;part=1;fontStyle=2" parent="4a63a70a29bb4ada-51" vertex="1" connectable="0">
          <mxGeometry width="30" height="26" as="geometry" />
        </mxCell>
        <mxCell id="5ecfb9fce94ea102-3" value="user_id" style="shape=partialRectangle;top=0;left=0;right=0;bottom=0;align=left;verticalAlign=top;fillColor=none;spacingLeft=34;spacingRight=4;overflow=hidden;rotatable=0;points=[[0,0.5],[1,0.5]];portConstraint=eastwest;dropTarget=0;fontStyle=2" parent="4a63a70a29bb4ada-26" vertex="1">
          <mxGeometry y="82" width="160" height="26" as="geometry" />
        </mxCell>
        <mxCell id="5ecfb9fce94ea102-4" value="FK" style="shape=partialRectangle;top=0;left=0;bottom=0;fillColor=none;align=left;verticalAlign=top;spacingLeft=4;spacingRight=4;overflow=hidden;rotatable=0;points=[];portConstraint=eastwest;part=1;fontStyle=2" parent="5ecfb9fce94ea102-3" vertex="1" connectable="0">
          <mxGeometry width="30" height="26" as="geometry" />
        </mxCell>
        <mxCell id="113bda5a66023eaa-7" value="created_at" style="shape=partialRectangle;top=0;left=0;right=0;bottom=0;align=left;verticalAlign=top;fillColor=none;spacingLeft=34;spacingRight=4;overflow=hidden;rotatable=0;points=[[0,0.5],[1,0.5]];portConstraint=eastwest;dropTarget=0;fontStyle=2" parent="4a63a70a29bb4ada-26" vertex="1">
          <mxGeometry y="108" width="160" height="26" as="geometry" />
        </mxCell>
        <mxCell id="113bda5a66023eaa-8" value="FK" style="shape=partialRectangle;top=0;left=0;bottom=0;fillColor=none;align=left;verticalAlign=top;spacingLeft=4;spacingRight=4;overflow=hidden;rotatable=0;points=[];portConstraint=eastwest;part=1;fontStyle=2" parent="113bda5a66023eaa-7" vertex="1" connectable="0">
          <mxGeometry width="30" height="26" as="geometry" />
        </mxCell>
        <mxCell id="4a63a70a29bb4ada-53" value="updated_at" style="shape=partialRectangle;top=0;left=0;right=0;bottom=0;align=left;verticalAlign=top;fillColor=none;spacingLeft=34;spacingRight=4;overflow=hidden;rotatable=0;points=[[0,0.5],[1,0.5]];portConstraint=eastwest;dropTarget=0;fontStyle=0" parent="4a63a70a29bb4ada-26" vertex="1">
          <mxGeometry y="134" width="160" height="26" as="geometry" />
        </mxCell>
        <mxCell id="4a63a70a29bb4ada-54" value="" style="shape=partialRectangle;top=0;left=0;bottom=0;fillColor=none;align=left;verticalAlign=top;spacingLeft=4;spacingRight=4;overflow=hidden;rotatable=0;points=[];portConstraint=eastwest;part=1;" parent="4a63a70a29bb4ada-53" vertex="1" connectable="0">
          <mxGeometry width="30" height="26" as="geometry" />
        </mxCell>
        <mxCell id="mLGmc2GUnrr8j5SqYWJm-8" style="edgeStyle=orthogonalEdgeStyle;rounded=0;orthogonalLoop=1;jettySize=auto;html=1;exitX=0;exitY=0;exitDx=0;exitDy=0;" parent="1" source="4f2698fda814bacb-14" edge="1">
          <mxGeometry relative="1" as="geometry">
            <mxPoint x="370.66666666666674" y="410.66666666666674" as="targetPoint" />
          </mxGeometry>
        </mxCell>
        <mxCell id="4f2698fda814bacb-14" value="userfollowers" style="swimlane;fontStyle=0;childLayout=stackLayout;horizontal=1;startSize=26;fillColor=#ffe6cc;horizontalStack=0;resizeParent=1;resizeParentMax=0;resizeLast=0;collapsible=1;marginBottom=0;swimlaneFillColor=#ffffff;align=center;fontSize=13;dashed=1;strokeColor=#d79b00;strokeWidth=1;" parent="1" vertex="1">
          <mxGeometry x="380" y="490" width="160" height="120" as="geometry" />
        </mxCell>
        <mxCell id="4f2698fda814bacb-15" value="followerid" style="shape=partialRectangle;top=0;left=0;right=0;bottom=1;align=left;verticalAlign=middle;fillColor=none;spacingLeft=60;spacingRight=4;overflow=hidden;rotatable=0;points=[[0,0.5],[1,0.5]];portConstraint=eastwest;dropTarget=0;fontStyle=5;fontSize=12;strokeColor=#000000;perimeterSpacing=0;" parent="4f2698fda814bacb-14" vertex="1">
          <mxGeometry y="26" width="160" height="30" as="geometry" />
        </mxCell>
        <mxCell id="4f2698fda814bacb-16" value="PK" style="shape=partialRectangle;fontStyle=1;top=0;left=0;bottom=0;fillColor=none;align=left;verticalAlign=middle;spacingLeft=4;spacingRight=4;overflow=hidden;rotatable=0;points=[];portConstraint=eastwest;part=1;fontSize=12;" parent="4f2698fda814bacb-15" vertex="1" connectable="0">
          <mxGeometry width="56" height="30" as="geometry" />
        </mxCell>
        <mxCell id="113bda5a66023eaa-1" value="UserID" style="shape=partialRectangle;top=0;left=0;right=0;bottom=0;align=left;verticalAlign=middle;fillColor=none;spacingLeft=60;spacingRight=4;overflow=hidden;rotatable=0;points=[[0,0.5],[1,0.5]];portConstraint=eastwest;dropTarget=0;fontStyle=2;fontSize=12;strokeColor=none;" parent="4f2698fda814bacb-14" vertex="1">
          <mxGeometry y="56" width="160" height="30" as="geometry" />
        </mxCell>
        <mxCell id="113bda5a66023eaa-2" value="FK1" style="shape=partialRectangle;fontStyle=2;top=0;left=0;bottom=0;fillColor=none;align=left;verticalAlign=middle;spacingLeft=4;spacingRight=4;overflow=hidden;rotatable=0;points=[];portConstraint=eastwest;part=1;fontSize=12;" parent="113bda5a66023eaa-1" vertex="1" connectable="0">
          <mxGeometry width="56" height="30" as="geometry" />
        </mxCell>
        <mxCell id="4f2698fda814bacb-17" value="follower_id" style="shape=partialRectangle;top=0;left=0;right=0;bottom=1;align=left;verticalAlign=middle;fillColor=none;spacingLeft=60;spacingRight=4;overflow=hidden;rotatable=0;points=[[0,0.5],[1,0.5]];portConstraint=eastwest;dropTarget=0;fontStyle=2;fontSize=12;dashed=1;strokeColor=#D79B00;" parent="4f2698fda814bacb-14" vertex="1">
          <mxGeometry y="86" width="160" height="34" as="geometry" />
        </mxCell>
        <mxCell id="4f2698fda814bacb-18" value="FK2" style="shape=partialRectangle;fontStyle=2;top=0;left=0;bottom=0;fillColor=none;align=left;verticalAlign=middle;spacingLeft=4;spacingRight=4;overflow=hidden;rotatable=0;points=[];portConstraint=eastwest;part=1;fontSize=12;" parent="4f2698fda814bacb-17" vertex="1" connectable="0">
          <mxGeometry width="56" height="34" as="geometry" />
        </mxCell>
        <mxCell id="4f2698fda814bacb-22" value="" style="endArrow=none;dashed=1;html=1;strokeColor=#000066;fontSize=13;rounded=0;edgeStyle=orthogonalEdgeStyle;entryX=0.5;entryY=0;" parent="1" source="4a63a70a29bb4ada-1" target="4f2698fda814bacb-14" edge="1">
          <mxGeometry width="50" height="50" relative="1" as="geometry">
            <mxPoint x="110" y="630" as="sourcePoint" />
            <mxPoint x="160" y="580" as="targetPoint" />
            <Array as="points">
              <mxPoint x="370" y="410" />
            </Array>
          </mxGeometry>
        </mxCell>
        <mxCell id="5ecfb9fce94ea102-1" style="edgeStyle=none;rounded=0;html=1;startArrow=ERmandOne;startFill=0;endArrow=ERzeroToMany;endFill=1;jettySize=auto;orthogonalLoop=1;strokeColor=#000066;fontSize=13;exitX=1;exitY=0.5;entryX=0;entryY=0.5;" parent="1" target="4a63a70a29bb4ada-13" edge="1">
          <mxGeometry relative="1" as="geometry">
            <mxPoint x="550" y="261" as="sourcePoint" />
            <mxPoint x="725" y="99" as="targetPoint" />
          </mxGeometry>
        </mxCell>
        <mxCell id="5ecfb9fce94ea102-2" style="edgeStyle=orthogonalEdgeStyle;rounded=0;html=1;exitX=0.5;exitY=0;entryX=1;entryY=0.5;startArrow=none;startFill=0;endArrow=none;endFill=0;jettySize=auto;orthogonalLoop=1;strokeColor=none;fontSize=13;dashed=1;" parent="1" edge="1">
          <mxGeometry relative="1" as="geometry">
            <mxPoint x="633" y="174" as="sourcePoint" />
            <mxPoint x="550" y="261" as="targetPoint" />
          </mxGeometry>
        </mxCell>
        <mxCell id="mLGmc2GUnrr8j5SqYWJm-2" style="edgeStyle=orthogonalEdgeStyle;rounded=0;orthogonalLoop=1;jettySize=auto;html=1;exitX=0.5;exitY=0;exitDx=0;exitDy=0;entryX=0.438;entryY=0;entryDx=0;entryDy=0;entryPerimeter=0;" parent="1" source="4a63a70a29bb4ada-1" target="4a63a70a29bb4ada-1" edge="1">
          <mxGeometry relative="1" as="geometry" />
        </mxCell>
        <mxCell id="mLGmc2GUnrr8j5SqYWJm-30" value="post_comments" style="swimlane;fontStyle=0;childLayout=stackLayout;horizontal=1;startSize=26;fillColor=#ffe6cc;horizontalStack=0;resizeParent=1;resizeParentMax=0;resizeLast=0;collapsible=1;marginBottom=0;swimlaneFillColor=#ffffff;align=center;strokeWidth=1;fontSize=13;strokeColor=#d79b00;" parent="1" vertex="1">
          <mxGeometry x="400" y="240" width="160" height="160" as="geometry" />
        </mxCell>
        <mxCell id="mLGmc2GUnrr8j5SqYWJm-31" value="CommentID" style="shape=partialRectangle;top=0;left=0;right=0;bottom=1;align=left;verticalAlign=middle;fillColor=none;spacingLeft=34;spacingRight=4;overflow=hidden;rotatable=0;points=[[0,0.5],[1,0.5]];portConstraint=eastwest;dropTarget=0;fontStyle=5;" parent="mLGmc2GUnrr8j5SqYWJm-30" vertex="1">
          <mxGeometry y="26" width="160" height="30" as="geometry" />
        </mxCell>
        <mxCell id="mLGmc2GUnrr8j5SqYWJm-32" value="PK" style="shape=partialRectangle;top=0;left=0;bottom=0;fillColor=none;align=left;verticalAlign=middle;spacingLeft=4;spacingRight=4;overflow=hidden;rotatable=0;points=[];portConstraint=eastwest;part=1;fontStyle=1" parent="mLGmc2GUnrr8j5SqYWJm-31" vertex="1" connectable="0">
          <mxGeometry width="30" height="30" as="geometry" />
        </mxCell>
        <mxCell id="mLGmc2GUnrr8j5SqYWJm-33" value="post_id" style="shape=partialRectangle;top=0;left=0;right=0;bottom=0;align=left;verticalAlign=top;fillColor=none;spacingLeft=34;spacingRight=4;overflow=hidden;rotatable=0;points=[[0,0.5],[1,0.5]];portConstraint=eastwest;dropTarget=0;fontStyle=2" parent="mLGmc2GUnrr8j5SqYWJm-30" vertex="1">
          <mxGeometry y="56" width="160" height="26" as="geometry" />
        </mxCell>
        <mxCell id="mLGmc2GUnrr8j5SqYWJm-34" value="FK" style="shape=partialRectangle;top=0;left=0;bottom=0;fillColor=none;align=left;verticalAlign=top;spacingLeft=4;spacingRight=4;overflow=hidden;rotatable=0;points=[];portConstraint=eastwest;part=1;fontStyle=2" parent="mLGmc2GUnrr8j5SqYWJm-33" vertex="1" connectable="0">
          <mxGeometry width="30" height="26" as="geometry" />
        </mxCell>
        <mxCell id="mLGmc2GUnrr8j5SqYWJm-35" value="user_id" style="shape=partialRectangle;top=0;left=0;right=0;bottom=0;align=left;verticalAlign=top;fillColor=none;spacingLeft=34;spacingRight=4;overflow=hidden;rotatable=0;points=[[0,0.5],[1,0.5]];portConstraint=eastwest;dropTarget=0;fontStyle=2" parent="mLGmc2GUnrr8j5SqYWJm-30" vertex="1">
          <mxGeometry y="82" width="160" height="26" as="geometry" />
        </mxCell>
        <mxCell id="mLGmc2GUnrr8j5SqYWJm-36" value="FK" style="shape=partialRectangle;top=0;left=0;bottom=0;fillColor=none;align=left;verticalAlign=top;spacingLeft=4;spacingRight=4;overflow=hidden;rotatable=0;points=[];portConstraint=eastwest;part=1;fontStyle=2" parent="mLGmc2GUnrr8j5SqYWJm-35" vertex="1" connectable="0">
          <mxGeometry width="30" height="26" as="geometry" />
        </mxCell>
        <mxCell id="mLGmc2GUnrr8j5SqYWJm-37" value="created_at" style="shape=partialRectangle;top=0;left=0;right=0;bottom=0;align=left;verticalAlign=top;fillColor=none;spacingLeft=34;spacingRight=4;overflow=hidden;rotatable=0;points=[[0,0.5],[1,0.5]];portConstraint=eastwest;dropTarget=0;fontStyle=2" parent="mLGmc2GUnrr8j5SqYWJm-30" vertex="1">
          <mxGeometry y="108" width="160" height="26" as="geometry" />
        </mxCell>
        <mxCell id="mLGmc2GUnrr8j5SqYWJm-38" value="FK" style="shape=partialRectangle;top=0;left=0;bottom=0;fillColor=none;align=left;verticalAlign=top;spacingLeft=4;spacingRight=4;overflow=hidden;rotatable=0;points=[];portConstraint=eastwest;part=1;fontStyle=2" parent="mLGmc2GUnrr8j5SqYWJm-37" vertex="1" connectable="0">
          <mxGeometry width="30" height="26" as="geometry" />
        </mxCell>
        <mxCell id="mLGmc2GUnrr8j5SqYWJm-39" value="updated_at" style="shape=partialRectangle;top=0;left=0;right=0;bottom=0;align=left;verticalAlign=top;fillColor=none;spacingLeft=34;spacingRight=4;overflow=hidden;rotatable=0;points=[[0,0.5],[1,0.5]];portConstraint=eastwest;dropTarget=0;fontStyle=0" parent="mLGmc2GUnrr8j5SqYWJm-30" vertex="1">
          <mxGeometry y="134" width="160" height="26" as="geometry" />
        </mxCell>
        <mxCell id="mLGmc2GUnrr8j5SqYWJm-40" value="" style="shape=partialRectangle;top=0;left=0;bottom=0;fillColor=none;align=left;verticalAlign=top;spacingLeft=4;spacingRight=4;overflow=hidden;rotatable=0;points=[];portConstraint=eastwest;part=1;" parent="mLGmc2GUnrr8j5SqYWJm-39" vertex="1" connectable="0">
          <mxGeometry width="30" height="26" as="geometry" />
        </mxCell>
        <mxCell id="HoltSotuUJbAwv-jnQ-8-2" style="edgeStyle=orthogonalEdgeStyle;rounded=0;orthogonalLoop=1;jettySize=auto;html=1;exitX=1;exitY=0.5;exitDx=0;exitDy=0;" parent="1" source="113bda5a66023eaa-1" target="4a63a70a29bb4ada-26" edge="1">
          <mxGeometry relative="1" as="geometry">
            <mxPoint x="730" y="440" as="targetPoint" />
          </mxGeometry>
        </mxCell>
        <mxCell id="HoltSotuUJbAwv-jnQ-8-3" value="&#39;" style="edgeStyle=orthogonalEdgeStyle;rounded=0;orthogonalLoop=1;jettySize=auto;html=1;exitX=1;exitY=0.5;exitDx=0;exitDy=0;" parent="1" source="4a63a70a29bb4ada-29" target="4f2698fda814bacb-14" edge="1">
          <mxGeometry relative="1" as="geometry" />
        </mxCell>
      </root>
    </mxGraphModel>
  </diagram>
</mxfile>
